<?xml version="1.0" encoding="iso-8859-1"?>
<!-- Generator: Adobe Illustrator 16.0.0, SVG Export Plug-In . SVG Version: 6.00 Build 0)  -->
<!DOCTYPE svg PUBLIC "-//W3C//DTD SVG 1.1//EN" "http://www.w3.org/Graphics/SVG/1.1/DTD/svg11.dtd">
<svg xmlns="http://www.w3.org/2000/svg" xmlns:xlink="http://www.w3.org/1999/xlink" version="1.1" id="Capa_1" x="0px" y="0px" width="512px" height="512px" viewBox="0 0 46 46" style="enable-background:new 0 0 46 46;" xml:space="preserve">
<g>
	<g>
		<path d="M43.503,26.542L15.513,26.5c-0.005,0-0.009,0-0.014,0c-2.401,0-4.659,0.939-6.357,2.636    c-1.703,1.7-2.642,3.966-2.642,6.373c0,4.958,4.033,8.991,8.991,8.991H20c1.381,0,2.5-1.119,2.5-2.5s-1.119-2.5-2.5-2.5h-4.509    c-2.201,0-3.991-1.793-3.991-3.993c0-1.069,0.417-2.077,1.174-2.833C13.43,31.919,14.433,31.5,15.5,31.5c0.002,0,0.004,0,0.006,0    h27.991c0.001,0,0.002,0,0.003,0c1.379,0,2.498-1.096,2.5-2.477C46.002,27.645,44.884,26.544,43.503,26.542z" fill="#b84592"/>
		<path d="M43.5,19.5H8c-4.411,0-8,3.589-8,8C0,28.881,1.119,30,2.5,30S5,28.881,5,27.5c0-1.654,1.346-3,3-3h35.5    c1.381,0,2.5-1.119,2.5-2.5S44.881,19.5,43.5,19.5z" fill="#b84592"/>
		<path d="M19,17.5h24.5c1.381,0,2.5-1.119,2.5-2.5s-1.119-2.5-2.5-2.5H19c-1.654,0-3-1.346-3-3s1.346-3,3-3h3    c1.381,0,2.5-1.119,2.5-2.5S23.381,1.5,22,1.5h-3c-4.411,0-8,3.589-8,8S14.589,17.5,19,17.5z" fill="#b84592"/>
	</g>
</g>
<g>
</g>
<g>
</g>
<g>
</g>
<g>
</g>
<g>
</g>
<g>
</g>
<g>
</g>
<g>
</g>
<g>
</g>
<g>
</g>
<g>
</g>
<g>
</g>
<g>
</g>
<g>
</g>
<g>
</g>
</svg>
