<?xml version="1.0" encoding="iso-8859-1"?>
<!-- Generator: Adobe Illustrator 18.0.0, SVG Export Plug-In . SVG Version: 6.00 Build 0)  -->
<!DOCTYPE svg PUBLIC "-//W3C//DTD SVG 1.1//EN" "http://www.w3.org/Graphics/SVG/1.1/DTD/svg11.dtd">
<svg xmlns="http://www.w3.org/2000/svg" xmlns:xlink="http://www.w3.org/1999/xlink" version="1.1" id="Capa_1" x="0px" y="0px" viewBox="0 0 297 297" style="enable-background:new 0 0 297 297;" xml:space="preserve" width="512px" height="512px">
<g>
	<path d="M287.405,123.776c-2.564-3.993-4.986-7.765-5.832-10.932c-0.917-3.43-0.712-8.069-0.496-12.98   c0.362-8.184,0.772-17.459-3.959-25.636c-4.794-8.285-13.097-12.577-20.422-16.364c-4.309-2.229-8.379-4.332-10.803-6.757   c-2.425-2.425-4.528-6.493-6.756-10.801c-3.786-7.326-8.079-15.63-16.365-20.424c-6.376-3.69-13.346-4.163-18.705-4.163   c-2.352,0-4.679,0.103-6.93,0.203c-2.142,0.094-4.166,0.184-6.102,0.184c-2.959,0-5.145-0.217-6.88-0.681   c-3.166-0.846-6.938-3.268-10.93-5.831C166.22,5.098,158.281,0,148.5,0c-9.779,0-17.719,5.098-24.725,9.596   c-3.993,2.563-7.765,4.985-10.93,5.831c-1.733,0.463-3.919,0.68-6.876,0.68c-1.938,0-3.962-0.09-6.105-0.184   c-2.252-0.1-4.581-0.202-6.933-0.202c-5.359,0-12.327,0.474-18.704,4.162c-8.286,4.794-12.577,13.097-16.364,20.422   c-2.227,4.309-4.331,8.378-6.757,10.803c-2.425,2.425-6.493,4.528-10.801,6.756c-7.327,3.787-15.63,8.079-20.423,16.365   c-4.732,8.177-4.322,17.454-3.961,25.639c0.217,4.909,0.422,9.549-0.495,12.979c-0.847,3.166-3.269,6.938-5.832,10.931   C5.099,130.781,0,138.721,0,148.5s5.097,17.718,9.595,24.724c2.564,3.993,4.986,7.765,5.832,10.932   c0.917,3.431,0.712,8.069,0.496,12.98c-0.362,8.183-0.772,17.458,3.959,25.634c4.794,8.287,13.098,12.58,20.424,16.367   c4.308,2.227,8.377,4.331,10.802,6.756c2.425,2.424,4.528,6.493,6.756,10.802c3.786,7.325,8.078,15.629,16.364,20.422   c6.376,3.69,13.346,4.163,18.705,4.163c2.352,0,4.68-0.103,6.931-0.203c2.142-0.094,4.165-0.184,6.102-0.184   c2.959,0,5.145,0.217,6.88,0.681c3.166,0.846,6.938,3.268,10.93,5.831C130.78,291.902,138.719,297,148.5,297   c9.779,0,17.719-5.098,24.725-9.596c3.993-2.564,7.765-4.985,10.93-5.831c1.733-0.463,3.919-0.68,6.876-0.68   c1.938,0,3.962,0.09,6.104,0.185c2.253,0.1,4.582,0.202,6.934,0.202c5.359,0,12.327-0.474,18.702-4.162   c8.287-4.794,12.58-13.098,16.367-20.424c2.227-4.308,4.331-8.376,6.756-10.801c2.425-2.426,6.493-4.529,10.802-6.757   c7.326-3.786,15.629-8.078,20.422-16.364c4.731-8.177,4.322-17.453,3.961-25.637c-0.216-4.911-0.421-9.55,0.496-12.98   c0.846-3.165,3.268-6.937,5.831-10.929c4.497-7.006,9.596-14.945,9.596-24.727C297,138.721,291.903,130.782,287.405,123.776z    M270.771,162.547c-3.271,5.093-6.651,10.359-8.294,16.504c-1.702,6.369-1.407,13.057-1.147,18.955   c0.266,6.012,0.516,11.689-1.323,14.867c-1.897,3.281-6.993,5.916-12.389,8.704c-5.46,2.823-11.105,5.742-15.703,10.338   c-4.596,4.597-7.515,10.243-10.337,15.702c-2.789,5.396-5.424,10.492-8.707,12.392c-1.798,1.041-4.513,1.504-8.803,1.504   c-1.916,0-3.929-0.089-6.061-0.183c-2.263-0.1-4.603-0.203-6.977-0.203c-4.728,0-8.534,0.429-11.98,1.35   c-6.145,1.643-11.412,5.024-16.506,8.295c-5.175,3.322-10.063,6.461-14.044,6.461c-3.981,0-8.869-3.139-14.046-6.461   c-5.093-3.271-10.359-6.652-16.503-8.295c-3.447-0.921-7.256-1.351-11.986-1.351c-2.373,0-4.712,0.103-6.974,0.202   c-2.131,0.095-4.144,0.184-6.059,0.184c-4.291,0-7.006-0.464-8.805-1.506c-3.282-1.898-5.917-6.993-8.705-12.389   c-2.823-5.46-5.742-11.107-10.338-15.703c-4.597-4.596-10.243-7.515-15.702-10.337c-5.396-2.789-10.492-5.425-12.391-8.707   c-1.838-3.175-1.587-8.853-1.321-14.862c0.259-5.899,0.555-12.588-1.147-18.957c-1.642-6.146-5.024-11.414-8.296-16.508   c-3.321-5.175-6.461-10.063-6.461-14.043s3.14-8.868,6.463-14.043c3.271-5.095,6.652-10.361,8.295-16.508   c1.702-6.369,1.406-13.056,1.146-18.955c-0.265-6.012-0.516-11.689,1.323-14.867c1.898-3.281,6.993-5.916,12.389-8.705   c5.46-2.822,11.105-5.741,15.703-10.338c4.596-4.597,7.516-10.243,10.338-15.703c2.789-5.396,5.423-10.491,8.704-12.389   c1.798-1.041,4.514-1.505,8.805-1.505c1.915,0,3.929,0.089,6.061,0.183c2.263,0.1,4.603,0.203,6.977,0.203   c4.728,0,8.535-0.429,11.98-1.35c6.145-1.642,11.412-5.024,16.506-8.295c5.175-3.322,10.063-6.461,14.044-6.461   c3.981,0,8.869,3.139,14.046,6.461c5.093,3.271,10.359,6.652,16.504,8.294c3.446,0.922,7.255,1.352,11.985,1.352   c2.373,0,4.712-0.104,6.974-0.202c2.131-0.095,4.143-0.184,6.059-0.184c4.291,0,7.006,0.464,8.805,1.506   c3.283,1.899,5.918,6.994,8.707,12.391c2.822,5.459,5.741,11.104,10.336,15.701c4.597,4.596,10.243,7.515,15.703,10.338   c5.396,2.789,10.491,5.424,12.39,8.706c1.838,3.175,1.587,8.853,1.321,14.864c-0.259,5.899-0.555,12.586,1.147,18.955   c1.643,6.146,5.024,11.414,8.296,16.508c3.321,5.175,6.461,10.063,6.461,14.043C277.233,152.481,274.094,157.37,270.771,162.547z" fill="#333333"/>
	<path d="M148.497,60.762c-48.247,0-87.499,39.359-87.499,87.738s39.252,87.738,87.499,87.738c48.251,0,87.505-39.359,87.505-87.738   S196.748,60.762,148.497,60.762z M148.497,216.472c-37.348,0-67.732-30.492-67.732-67.972s30.385-67.972,67.732-67.972   c37.351,0,67.738,30.492,67.738,67.972S185.848,216.472,148.497,216.472z" fill="#333333"/>
</g>
<g>
</g>
<g>
</g>
<g>
</g>
<g>
</g>
<g>
</g>
<g>
</g>
<g>
</g>
<g>
</g>
<g>
</g>
<g>
</g>
<g>
</g>
<g>
</g>
<g>
</g>
<g>
</g>
<g>
</g>
</svg>
